External Loads File
version=1
nRows=62
nColumns=13
Range=5.000000e-03-10 seconds
endheader
time 	forceRightX 	forceRightY 	forceRightZ 	pointRightX 	pointRightY 	pointRightZ 	forceLeftX 	forceLeftY 	forceLeftZ 	pointLeftX 	pointLeftY 	pointLeftZ 		
5.005000 2.088131 -48.510812 -0.000000 0.174838 0.427718 -0.147557 4.891754 978.717595 -0.000000 0.399129 0.215531 -0.382556
5.010000 -3.998677 -49.213191 -0.000000 0.181624 0.436766 -0.147806 25.227312 983.162274 -0.000000 0.392997 0.207313 -0.382097
5.015000 -10.820976 -49.359759 -0.000000 0.188806 0.445259 -0.148210 46.834784 983.626274 -0.000000 0.386316 0.199594 -0.381738
5.020000 -18.125854 -48.935041 -0.000000 0.196534 0.453317 -0.148619 70.114776 979.621505 -0.000000 0.379162 0.192345 -0.381544
5.025000 -25.609634 -47.999835 -0.000000 0.204554 0.460769 -0.149144 93.767480 970.824589 -0.000000 0.371525 0.185600 -0.381389
5.030000 -33.067326 -46.585901 -0.000000 0.213103 0.467597 -0.149417 117.518522 957.019968 -0.000000 0.363542 0.179370 -0.381231
5.035000 -40.330382 -44.640768 -0.000000 0.221913 0.473914 -0.149832 140.803729 938.222939 -0.000000 0.355108 0.173593 -0.381117
5.040000 -47.262392 -41.925468 -0.000000 0.231283 0.479761 -0.150201 163.583335 914.502286 -0.000000 0.346371 0.168421 -0.381056
5.045000 -53.564472 -38.111845 -0.000000 0.240364 0.484885 -0.150879 183.262389 886.392567 -0.000000 0.337386 0.163797 -0.380872
5.050000 -59.111895 -32.328647 -0.000000 0.250324 0.489378 -0.151027 202.713198 853.230287 -0.000000 0.328131 0.159810 -0.380701
5.055000 -63.443399 -23.859121 -0.000000 0.260255 0.493211 -0.151407 219.213110 815.209430 -0.000000 0.318668 0.156484 -0.380653
5.060000 -66.098361 -11.860376 -0.000000 0.270189 0.496363 -0.151807 232.251265 771.975684 -0.000000 0.309088 0.153820 -0.380584
5.065000 -66.546928 4.363864 -0.000000 0.280291 0.498840 -0.152121 241.690735 723.163921 -0.000000 0.299442 0.151852 -0.380442
5.070000 -64.274286 25.085746 -0.000000 0.290212 0.500583 -0.152246 246.527750 669.039052 -0.000000 0.289739 0.150682 -0.380368
5.075000 -58.829896 50.320288 -0.000000 0.300517 0.501733 -0.152160 247.711885 609.591834 -0.000000 0.280028 0.150234 -0.380316
5.080000 -50.106357 79.378469 -0.000000 0.310381 0.502121 -0.152214 243.704581 546.187074 -0.000000 0.270338 0.150484 -0.380233
5.085000 -38.329365 111.348435 -0.000000 0.319751 0.501752 -0.152033 234.734465 480.069829 -0.000000 0.260717 0.151479 -0.380146
5.090000 -24.099833 145.147128 -0.000000 0.328633 0.500685 -0.151692 221.322206 412.862670 -0.000000 0.251231 0.153217 -0.380029
5.095000 -8.434719 179.799450 -0.000000 0.336842 0.498848 -0.151386 204.079593 346.594125 -0.000000 0.241942 0.155671 -0.379868
5.100000 7.828844 214.743226 -0.000000 0.344895 0.496365 -0.151115 184.556909 283.028815 -0.000000 0.232858 0.158818 -0.379559
5.105000 23.338712 249.926293 -0.000000 0.352182 0.493140 -0.150417 163.492873 224.432398 -0.000000 0.224002 0.162640 -0.379229
5.110000 37.680465 285.717210 -0.000000 0.359389 0.489165 -0.149825 142.659260 172.017601 -0.000000 0.215420 0.167065 -0.378925
5.115000 50.181736 322.733948 -0.000000 0.366033 0.484023 -0.149265 122.993224 126.653155 -0.000000 0.207070 0.172039 -0.378568
5.120000 60.976645 361.481138 -0.000000 0.372802 0.478380 -0.148368 105.219790 87.950570 -0.000000 0.198933 0.177514 -0.378198
5.125000 70.002154 402.236119 -0.000000 0.378938 0.472060 -0.147549 89.114722 54.770064 -0.000000 0.190540 0.183489 -0.377159
5.130000 76.498942 444.942442 -0.000000 0.384828 0.465036 -0.147010 73.805785 25.578824 -0.000000 0.183162 0.189951 -0.376913
5.135000 80.886665 488.763788 -0.000000 0.390341 0.457387 -0.146766 58.275907 -1.310689 -0.000000 0.176242 0.196872 -0.376706
5.140000 83.293800 532.414593 -0.000000 0.395548 0.449174 -0.146653 41.479266 -26.783990 -0.000000 0.169658 0.204241 -0.376525
5.145000 83.855740 574.344978 -0.000000 0.400586 0.440328 -0.146570 22.984129 -50.611176 -0.000000 0.163423 0.212039 -0.376404
5.150000 82.037536 613.140223 -0.000000 0.405372 0.430961 -0.146393 3.544400 -71.426662 -0.000000 0.157669 0.220237 -0.376348
5.155000 77.682701 647.658433 -0.000000 0.410053 0.421228 -0.146467 -15.118863 -87.538225 -0.000000 0.152429 0.228836 -0.376306
5.160000 70.406789 677.333062 -0.000000 0.414366 0.411218 -0.146562 -31.089818 -97.892244 -0.000000 0.147632 0.237811 -0.376351
5.165000 60.734429 702.116703 -0.000000 0.418394 0.400817 -0.146495 -43.068172 -102.405471 -0.000000 0.143318 0.247132 -0.376419
5.170000 48.621580 722.572791 -0.000000 0.421998 0.390245 -0.146559 -50.303340 -101.765955 -0.000000 0.139615 0.256780 -0.376524
5.175000 35.296432 739.526181 -0.000000 0.425361 0.379504 -0.146572 -52.776382 -96.975139 -0.000000 0.136407 0.266717 -0.376542
5.180000 20.921482 754.002075 -0.000000 0.428122 0.368831 -0.146501 -50.753199 -89.220639 -0.000000 0.133850 0.276919 -0.376666
5.185000 7.990324 766.887932 -0.000000 0.430380 0.357740 -0.146277 -45.079084 -79.449083 -0.000000 0.131893 0.287302 -0.376690
5.190000 -2.910819 778.957328 -0.000000 0.432316 0.346524 -0.147050 -36.506537 -68.574008 -0.000000 0.130622 0.297830 -0.376762
5.195000 -11.683332 790.657574 -0.000000 0.433707 0.335479 -0.146812 -25.833140 -57.336376 -0.000000 0.129925 0.308455 -0.376806
5.200000 -17.433396 802.193829 -0.000000 0.434204 0.324465 -0.146934 -13.927696 -46.271225 -0.000000 0.129953 0.319106 -0.376835
5.205000 -19.639694 813.734712 -0.000000 0.434323 0.313465 -0.146885 -1.538392 -35.835150 -0.000000 0.130608 0.329784 -0.376858
5.210000 -19.417997 825.565171 -0.000000 0.433433 0.302769 -0.146246 10.749841 -26.453434 -0.000000 0.131846 0.340385 -0.376907
5.215000 -15.881633 838.274670 -0.000000 0.432370 0.291786 -0.147127 22.337228 -18.547964 -0.000000 0.133860 0.350913 -0.376972
5.220000 -11.535893 852.623669 -0.000000 0.430442 0.281218 -0.147290 32.769654 -12.445937 -0.000000 0.136394 0.361317 -0.377064
5.225000 -5.806905 869.518850 -0.000000 0.427839 0.270796 -0.147510 41.526194 -8.440263 -0.000000 0.139665 0.371613 -0.377256
5.230000 1.513420 889.635437 -0.000000 0.424592 0.260382 -0.147463 48.149814 -6.686566 -0.000000 0.143495 0.381686 -0.377331
5.235000 10.884789 913.146530 -0.000000 0.420795 0.250201 -0.147520 52.294369 -7.184225 -0.000000 0.148060 0.391590 -0.377592
5.240000 22.878627 939.624014 -0.000000 0.416235 0.240364 -0.147520 53.754472 -9.802035 -0.000000 0.153153 0.401245 -0.377758
5.245000 38.168456 968.161079 -0.000000 0.411123 0.230847 -0.147746 52.477200 -14.341424 -0.000000 0.158896 0.410616 -0.377949
5.250000 56.904424 997.562692 -0.000000 0.405565 0.221561 -0.147540 48.566561 -20.544488 -0.000000 0.165235 0.419633 -0.378183
5.255000 78.765862 1026.444279 -0.000000 0.399490 0.212632 -0.147532 42.219724 -28.115631 -0.000000 0.172109 0.428307 -0.378370
5.260000 102.680532 1053.308538 -0.000000 0.392941 0.204326 -0.147753 33.681729 -36.728464 -0.000000 0.179494 0.436598 -0.378512
5.265000 128.680369 1076.441612 -0.000000 0.385965 0.196367 -0.147013 23.191185 -46.079890 -0.000000 0.187356 0.444455 -0.378643
5.270000 155.861280 1094.163195 -0.000000 0.378570 0.188935 -0.146813 11.066094 -55.785788 -0.000000 0.195715 0.451869 -0.378817
5.275000 182.563420 1104.987934 -0.000000 0.370856 0.182103 -0.146752 -2.244041 -65.459208 -0.000000 0.204335 0.458827 -0.378765
5.280000 206.645057 1107.760812 -0.000000 0.362751 0.175759 -0.146713 -16.157402 -74.778426 -0.000000 0.212630 0.465275 -0.378266
5.285000 230.904870 1100.708589 -0.000000 0.354413 0.170067 -0.146680 -30.397344 -83.343443 -0.000000 0.221969 0.471210 -0.378257
5.290000 253.726546 1083.181608 -0.000000 0.345855 0.165119 -0.146564 -44.435140 -90.719171 -0.000000 0.232035 0.476614 -0.378798
5.295000 270.573489 1055.867270 -0.000000 0.337156 0.160725 -0.146458 -57.455862 -96.642508 -0.000000 0.241548 0.481449 -0.378783
5.300000 283.422679 1018.498255 -0.000000 0.328314 0.156996 -0.146197 -69.197765 -100.587130 -0.000000 0.251254 0.485695 -0.378656
5.305000 292.128550 971.626885 -0.000000 0.319352 0.153842 -0.145927 -79.286295 -102.079319 -0.000000 0.261126 0.489317 -0.378741
5.310000 295.862292 916.277677 -0.000000 0.310433 0.151307 -0.145547 -87.315966 -100.750258 -0.000000 0.271019 0.492277 -0.378783
